<svg width="400" height="250" xmlns="http://www.w3.org/2000/svg">
  <defs>
    <linearGradient id="bg" x1="0%" y1="0%" x2="100%" y2="100%">
      <stop offset="0%" style="stop-color:#1a1a2e;stop-opacity:1" />
      <stop offset="100%" style="stop-color:#16213e;stop-opacity:1" />
    </linearGradient>
  </defs>
  <rect width="400" height="250" fill="url(#bg)" rx="15" ry="15" stroke="#374151" stroke-width="2" stroke-dasharray="5,5"/>
  
  <!-- Dashboard elements -->
  <rect x="30" y="30" width="80" height="60" fill="none" stroke="#94a3b8" stroke-width="2" rx="5"/>
  <rect x="40" y="40" width="60" height="10" fill="#94a3b8"/>
  <rect x="40" y="55" width="40" height="8" fill="#94a3b8"/>
  <rect x="40" y="68" width="50" height="8" fill="#94a3b8"/>
  
  <rect x="130" y="30" width="80" height="60" fill="none" stroke="#94a3b8" stroke-width="2" rx="5"/>
  <circle cx="170" cy="60" r="20" fill="none" stroke="#94a3b8" stroke-width="2"/>
  <path d="M 160 60 L 170 50 L 180 60" stroke="#94a3b8" stroke-width="2" fill="none"/>
  
  <rect x="230" y="30" width="80" height="60" fill="none" stroke="#94a3b8" stroke-width="2" rx="5"/>
  <rect x="240" y="40" width="60" height="8" fill="#94a3b8"/>
  <rect x="240" y="55" width="45" height="8" fill="#94a3b8"/>
  <rect x="240" y="68" width="55" height="8" fill="#94a3b8"/>
  
  <rect x="30" y="120" width="340" height="80" fill="none" stroke="#94a3b8" stroke-width="2" rx="5"/>
  <rect x="40" y="130" width="320" height="10" fill="#94a3b8"/>
  <rect x="40" y="145" width="280" height="8" fill="#94a3b8"/>
  <rect x="40" y="158" width="300" height="8" fill="#94a3b8"/>
  <rect x="40" y="171" width="250" height="8" fill="#94a3b8"/>
  
  <text x="200" y="220" text-anchor="middle" fill="#94a3b8" font-family="Arial, sans-serif" font-size="16" font-weight="bold">Pricebook Dashboard</text>
  <text x="200" y="235" text-anchor="middle" fill="#64748b" font-family="Arial, sans-serif" font-size="12">Replace with actual screenshot</text>
</svg>

